<svg xmlns="http://www.w3.org/2000/svg" viewBox="0 0 32 32" role="img" aria-label="Growly">
  <rect width="32" height="32" rx="8" fill="#F7F2E8"/>
  <path d="M16 24c-4 0-7-2.5-7-6.5 0-2.8 1.8-5 4.5-5.8-.3 1.5.5 3 2 3.8 1.2.6 2.6.4 3.5-.5-1.2 2.2-3.5 3.5-6 3.5-.5 0-1-.1-1.5-.2.8 2.2 3 3.7 5.5 3.7 3.3 0 6-2.7 6-6 0-.8-.2-1.6-.5-2.3 1.8.9 3 2.8 3 5.1 0 3.5-3 6.5-7 6.5z" fill="#4F7049"/>
  <path d="M16 8c0 3-2 5-4 6.5 1.5-.5 3-1.5 4-3.5V8z" fill="#648A57"/>
  <ellipse cx="16" cy="26" rx="5" ry="1.5" fill="#E4ECDD"/>
</svg>
